<?xml version="1.0" encoding="utf-8"?>
<!-- Generator: Adobe Illustrator 26.0.1, SVG Export Plug-In . SVG Version: 6.00 Build 0)  -->
<svg version="1.1" id="Layer_1" xmlns="http://www.w3.org/2000/svg" xmlns:xlink="http://www.w3.org/1999/xlink" x="0px" y="0px"
	 viewBox="0 0 26.29 25.53" style="enable-background:new 0 0 26.29 25.53;" xml:space="preserve">
<style type="text/css">
	.st0{fill:#E6E6E6;stroke:#6685C3;stroke-width:0.4841;stroke-miterlimit:10;}
	.st1{fill:#171515;}
	.st2{fill:#3A3D44;}
	.st3{fill:#4C4D51;}
	.st4{opacity:0.15;fill:#FFFFFF;}
	.st5{fill:#FFFFFF;}
	.st6{fill:#FFFFFF;stroke:#000000;stroke-width:0.8559;stroke-miterlimit:10;}
	.st7{fill:none;stroke:#000000;stroke-width:0.5519;stroke-linecap:round;stroke-miterlimit:10;}
</style>
<g>
	<path class="st0" d="M8.77,3.95c1.94-3.36,6.8-3.36,8.74,0l3.5,6.07l3.5,6.07c1.94,3.36-0.49,7.57-4.37,7.57h-7.01H6.13
		c-3.88,0-6.31-4.2-4.37-7.57l3.5-6.07L8.77,3.95z"/>
</g>
<g>
	<path class="st1" d="M6.75,10.21c-0.14,0-0.25,0.13-0.25,0.29c0,0.11,0.05,0.21,0.14,0.26l0.65,0.38h5.09v-0.93H6.75z"/>
	<g>
		<path class="st1" d="M7.4,10.21v2.05c0,1.29,1.05,2.34,2.34,2.34h0.3c1.29,0,2.34-1.05,2.34-2.34v-2.05H7.4z"/>
	</g>
	<path class="st1" d="M19.52,10.17c0.14,0,0.25,0.13,0.25,0.29c0,0.11-0.05,0.21-0.14,0.26l-0.65,0.38h-5.09v-0.93H19.52z"/>
	<g>
		<g>
			<path class="st2" d="M11.71,11.14H10.1c0,0.04,0.01,0.07,0.01,0.11c0,0.08-0.01,0.16-0.02,0.24h1.59v0.56
				c0,0.85-0.57,1.63-1.41,1.8C9.56,14,8.9,13.72,8.5,13.23c-0.13,0.03-0.26,0.04-0.4,0.04c0.43,0.65,1.2,1.06,2.06,0.95
				c1.08-0.13,1.87-1.1,1.87-2.19v-0.5C12.02,11.28,11.88,11.14,11.71,11.14z"/>
		</g>
		<g>
			<path class="st3" d="M8.5,13.23c0.4,0.49,1.05,0.77,1.76,0.62c0.84-0.17,1.41-0.95,1.41-1.8v-0.56h-1.59
				C9.98,12.35,9.34,13.05,8.5,13.23z"/>
		</g>
		<g>
			<path class="st2" d="M8.11,12.11v-0.62h1.98c0.01-0.08,0.02-0.16,0.02-0.24c0-0.04,0-0.08-0.01-0.11H8.07
				c-0.17,0-0.31,0.14-0.31,0.31v0.66c0,0.43,0.13,0.83,0.35,1.16c0.14,0,0.27-0.02,0.4-0.04C8.26,12.92,8.11,12.54,8.11,12.11z"/>
		</g>
		<path class="st4" d="M8.11,12.11v-0.62h1.98c0.01-0.08,0.02-0.16,0.02-0.24c0-0.04,0-0.08-0.01-0.11H8.07
			c-0.17,0-0.31,0.14-0.31,0.31v0.66c0,0.43,0.13,0.83,0.35,1.16c0.14,0,0.27-0.02,0.4-0.04C8.26,12.92,8.11,12.54,8.11,12.11z"/>
		<g>
			<path class="st3" d="M8.11,12.11c0,0.42,0.15,0.81,0.4,1.12c0.84-0.18,1.48-0.88,1.58-1.74H8.11V12.11z"/>
		</g>
		<path class="st4" d="M8.11,12.11c0,0.42,0.15,0.81,0.4,1.12c0.84-0.18,1.48-0.88,1.58-1.74H8.11V12.11z"/>
	</g>
	<path class="st5" d="M8.99,11.72H8.6c-0.09,0-0.17,0.08-0.17,0.17s0.08,0.17,0.17,0.17h0.4c0.09,0,0.17-0.08,0.17-0.17
		S9.09,11.72,8.99,11.72z"/>
	<g>
		<path class="st1" d="M13.68,10.17v2.05c0,1.29,1.05,2.34,2.34,2.34h0.3c1.29,0,2.34-1.05,2.34-2.34v-2.05H13.68z"/>
	</g>
	<path class="st6" d="M11.5,10.27"/>
	<g>
		<g>
			<path class="st2" d="M17.99,11.1h-1.62c0,0.04,0.01,0.07,0.01,0.11c0,0.08-0.01,0.16-0.02,0.24h1.59v0.56
				c0,0.85-0.57,1.63-1.41,1.8c-0.71,0.14-1.36-0.13-1.76-0.62c-0.13,0.03-0.26,0.04-0.4,0.04c0.43,0.65,1.2,1.06,2.06,0.95
				c1.08-0.13,1.87-1.1,1.87-2.19v-0.5C18.3,11.24,18.16,11.1,17.99,11.1z"/>
		</g>
		<g>
			<path class="st3" d="M14.78,13.19c0.4,0.49,1.05,0.77,1.76,0.62c0.84-0.17,1.41-0.95,1.41-1.8v-0.56h-1.59
				C16.26,12.31,15.62,13.01,14.78,13.19z"/>
		</g>
		<g>
			<path class="st2" d="M14.39,12.07v-0.62h1.98c0.01-0.08,0.02-0.16,0.02-0.24c0-0.04,0-0.08-0.01-0.11h-2.03
				c-0.17,0-0.31,0.14-0.31,0.31v0.66c0,0.43,0.13,0.83,0.35,1.16c0.14,0,0.27-0.02,0.4-0.04C14.54,12.88,14.39,12.49,14.39,12.07z"
				/>
		</g>
		<path class="st4" d="M14.39,12.07v-0.62h1.98c0.01-0.08,0.02-0.16,0.02-0.24c0-0.04,0-0.08-0.01-0.11h-2.03
			c-0.17,0-0.31,0.14-0.31,0.31v0.66c0,0.43,0.13,0.83,0.35,1.16c0.14,0,0.27-0.02,0.4-0.04C14.54,12.88,14.39,12.49,14.39,12.07z"
			/>
		<g>
			<path class="st3" d="M14.39,12.07c0,0.42,0.15,0.81,0.4,1.12c0.84-0.18,1.48-0.88,1.58-1.74h-1.98V12.07z"/>
		</g>
		<path class="st4" d="M14.39,12.07c0,0.42,0.15,0.81,0.4,1.12c0.84-0.18,1.48-0.88,1.58-1.74h-1.98V12.07z"/>
	</g>
	<path class="st7" d="M12.09,10.72c0-0.51,0.41-0.92,0.92-0.92s0.92,0.41,0.92,0.92"/>
	<path class="st5" d="M15.55,11.67h-0.4c-0.09,0-0.17,0.08-0.17,0.17c0,0.09,0.08,0.17,0.17,0.17h0.4c0.09,0,0.17-0.08,0.17-0.17
		C15.72,11.75,15.64,11.67,15.55,11.67z"/>
</g>
</svg>
